<?xml version="1.0" encoding="UTF-8"?><svg xmlns="http://www.w3.org/2000/svg" version="1.1" viewBox="0 0 250 250"><g class="frame3"><path d="M115,10v70h-60v-10h50V10h-10v10h-10v10h-10v10h-10v10h-10v10h-10v180h160V10h-90ZM85,90v10h10v-10h10v10h-10v10h10v10h-10v-10h-10v10h-10v-10h10v-10h-10v-10h10ZM185,160h-10v-10h-10v10h-10v-10h-10v40h-10v10h-30v-10h-10v-40h-10v10h-10v-10h10v-10h10v10h10v-10h10v10h10v-10h10v10h10v-10h10v10h10v-10h10v10h10v10ZM175,100h-10v10h10v10h-10v-10h-10v10h-10v-10h10v-10h-10v-10h10v10h10v-10h10v10Z"/><path d="M125,150v30h-10v-30h-10v40h30v-40h-10Z"/></g><path class="frame2" d="M115,10v70h-60v-10h50V10h-10v10h-10v10h-10v10h-10v10h-10v10h-10v180h160V10h-90ZM105,100v10h-30v-10h30ZM175,170h-10v-10h-10v-10h-60v10h-10v10h-10v-10h10v-10h10v-10h60v10h10v10h10v10ZM175,110h-30v-10h30v10Z"/><path class="frame1" d="M115,10v70h-60v-10h50V10h-10v10h-10v10h-10v10h-10v10h-10v10h-10v180h160V10h-90ZM95,90v30h-10v-30h10ZM175,170h-10v-10h-10v-10h-60v10h-10v10h-10v-10h10v-10h10v-10h60v10h10v10h10v10ZM165,120h-10v-30h10v30Z"/></svg>