<svg xmlns="http://www.w3.org/2000/svg" viewBox="0 0 662 125.01"><path d="M0 17.86c1.73-.66 18 .89 18 0V0h90v17.86h18v89.29h-18c-.9 0 .67 16.14 0 17.86H18l-2.08-.8.29-14.99H1.13L0 107.15zm89 0H36v88.3h53zM161 125.01c-.67-1.72.9-17.86 0-17.86h-18V17.86h18V0h90v17.86h18v89.29h-18c-.9 0 .67 16.14 0 17.86zm71-107.15h-53v88.3h53zM286 125.01V0h108v17.86h18v53.57h-18v17.86h-71c-1.8 0 2.05 32.65-1 35.72zm90-54.57V19.35c0-.11-1.39-1.49-1.5-1.49H323v52.58zM447 125.01c-.67-1.72.9-17.86 0-17.86h-18V89.79c0-.11 1.39-1.49 1.5-1.49h34c.11 0 1.5 1.38 1.5 1.49v16.37h53V71.44h-72V53.58h-18V17.86h18V0h90v17.86h18v17.86h-36V17.86h-53v35.72h71v16.87h16.5c.11 0 1.5 1.38 1.5 1.49v35.22h-18c-.9 0 .67 16.14 0 17.86h-90ZM644 125.01h-36c.45-2.14-1.23-18.85 1.5-18.85h34c2.35 0 1.97 16.85.5 18.85M662 0v53.57h-17V87.8c0 .11-1.39 1.49-1.5 1.49H608V0z"/></svg>