<?xml version="1.0" encoding="UTF-8"?><svg xmlns="http://www.w3.org/2000/svg" version="1.1" viewBox="0 0 250 250"><path class="bg" d="M20,0h210v30H20V0ZM30,30h10v30h-10v-30ZM210,30h10v30h-10v-30ZM40,60h10v10h-10v-10ZM200,60h10v10h-10v-10ZM50,70h10v10h-10v-10ZM190,70h10v10h-10v-10ZM60,80h10v10h-10v-10ZM180,80h10v10h-10v-10ZM70,90h10v10h-10v-10ZM170,90h10v10h-10v-10ZM80,100h10v10h-10v-10ZM160,100h10v10h-10v-10ZM90,110h10v30h-10v-30ZM150,110h10v30h-10v-30ZM80,140h10v10h-10v-10ZM160,140h10v10h-10v-10ZM70,150h10v10h-10v-10ZM170,150h10v10h-10v-10ZM60,160h10v10h-10v-10ZM180,160h10v10h-10v-10ZM50,170h10v10h-10v-10ZM190,170h10v10h-10v-10ZM40,180h10v10h-10v-10ZM200,180h10v10h-10v-10ZM30,190h10v60h-10v-60ZM210,190h10v60h-10v-60ZM20,220h10v30h-10v-30ZM40,220h170v30H40v-30ZM220,220h10v30h-10v-30Z"/><path class="frame4" d="M110,130h30v80h-30v-80ZM100,140h10v70h-10v-70ZM140,140h10v70h-10v-70ZM90,150h10v60h-10v-60ZM150,150h10v60h-10v-60ZM80,160h10v50h-10v-50ZM160,160h10v50h-10v-50ZM70,170h10v40h-10v-40ZM170,170h10v40h-10v-40ZM60,180h10v30h-10v-30ZM180,180h10v30h-10v-30ZM50,190h10v20h-10v-20ZM190,190h10v20h-10v-20Z"/><path class="frame3" d="M80,80h30v10h-30v-10ZM140,80h30v10h-30v-10ZM90,90h70v10h-70v-10ZM100,100h50v10h-50v-10ZM110,110h30v30h-30v-30ZM120,150h10v10h-10v-10ZM90,180h70v30h-70v-30ZM70,190h20v20h-20v-20ZM160,190h20v20h-20v-20ZM50,200h20v10h-20v-10ZM180,200h20v10h-20v-10Z"/><path class="frame2" d="M60,60h30v10h-30v-10ZM160,60h30v10h-30v-10ZM70,70h110v10h-110v-10ZM80,80h90v10h-90v-10ZM90,90h70v10h-70v-10ZM100,100h50v10h-50v-10ZM110,110h30v30h-30v-30ZM120,140h10v10h-10v-10ZM120,170h10v10h-10v-10ZM70,190h110v20h-110v-20ZM60,200h10v10h-10v-10ZM180,200h10v10h-10v-10Z"/><g class="frame1"><rect x="50" y="40" width="150" height="20"/><rect x="60" y="60" width="130" height="10"/><rect x="70" y="70" width="110" height="10"/><rect x="80" y="80" width="90" height="10"/><rect x="90" y="90" width="70" height="10"/><rect x="100" y="100" width="50" height="10"/><rect x="110" y="110" width="30" height="10"/></g></svg>