<svg xmlns="http://www.w3.org/2000/svg" id="Layer_1" version="1.1" viewBox="0 0 250 250"><defs><style>.st0{fill-rule:evenodd}</style></defs><path d="M129.4 63.8h8.7V46.3h-8.7V55h-8.7v17.5h8.7z"/><path d="M155.6 142.5v8.7H94.4v-8.7h-8.7v8.7H77v8.7H42v-8.7h-8.7v-8.7h-8.7v-8.7h-8.7v-35h8.7v-8.7h8.7v-8.7H42v-8.7h35v8.7h8.7v8.7h8.7v-8.7h-8.7v-8.7h26.2v8.7h26.2v-8.7h26.2v8.7h-8.7v8.7h-8.7v8.7h-8.7v35h8.7v8.7zm-52.5-43.7h-8.7v-8.7h8.7zm0 34.9h8.7v-35h-8.7zm-8.7 8.8h8.7v-8.7h-8.7zm-26.2 0H50.7v-8.7h17.5zm-35-35h8.7V125h-8.7zM50.7 90h17.5v8.7H50.7zm17.5 35H50.7v-17.5h17.5zm8.7-17.5h8.7V125h-8.7zm52.5 0h-8.7v8.7h8.7z" class="st0"/><path d="M208.1 160h-35v-8.7h-8.7v-8.7h-8.7v-8.7H147v-35h8.7v-8.7h8.7v-8.7h8.7v-8.7h35v8.7h8.7v8.7h8.7v8.7h8.7v35h-8.7v8.7h-8.7v8.7h-8.7zm0 0h8.7v-8.7h8.7v-8.7h8.7v43.7h-8.7v8.7h-8.7v8.7h-17.5V195h-8.7v-8.7h-8.7v-17.5h26.2v-8.7Zm8.7-43.7V98.8h-8.7v8.7h-8.7v8.7h17.5-.1Zm-35-17.5h-8.7v8.7h17.5V90h-8.7v8.7h-.1Zm-8.7 26.2h-8.7v8.7h17.5v-17.5h-8.7v8.7h-.1Zm17.5 17.5h17.5V125h-8.7v8.7h-8.7v8.7h-.1Z" class="st0"/><path d="M24.4 142.5h-8.7v43.7h8.7v8.7h8.7v8.7h17.5v-8.7h8.7v-8.7H68v-17.5H41.8V160h-8.7v-8.7h-8.7v-8.7Z"/></svg>