<svg xmlns="http://www.w3.org/2000/svg" viewBox="0 0 250 250"><path d="M103.1 73.9h14.6v7.3h-14.6zm-7.3 14.6h7.3v7.3h-7.3z"/><path d="M190.6 154.2h-7.3v-7.3H176v-7.3h-7.3v-7.3h-14.6V125h-29.2v7.3H103v7.3h-7.3v7.3h-7.3v7.3h-7.3v-43.8H66.5v-7.3h43.8v-7.3h7.3V81.2h7.3V59.3h-7.3V52h-7.3v-7.3H103v-7.3H81.1v7.3h-7.3V52h-7.3v7.3h-7.3v7.3h-7.3v36.5h-7.3v29.2h-7.3v58.4H30v14.6h65.6v7.3H154v-7.3h21.9V198h7.3v-7.3h7.3v-7.3h7.3v-21.9h-7.3v-7.3zM95.8 73.9v-7.3h7.3v7.3zm0 14.6V73.9h-7.3V52h-7.3v7.3h-7.3v7.3h7.3v7.3h7.3v14.6zm-29.2 14.6h-7.3v-7.3h7.3zm7.3 65.7v-14.6h7.3v14.6zm0 0v7.3h-7.3v-7.3zm43.8 14.6v-7.3h21.9v7.3zm36.5-14.6v7.3h-14.6v-7.3zm0 0v-7.3h7.3v7.3zm-36.5 7.3h-14.6v-7.3h14.6z" style="fill-rule:evenodd"/><path d="M154.2 81.2h-7.3v14.6h7.3zm58.3 36.5h7.3v7.3h-7.3zm-14.6-29.2h-7.3v7.3h-7.3v7.3h7.3v-7.3h7.3z"/></svg>