<svg xmlns="http://www.w3.org/2000/svg" viewBox="0 0 36 36"><g fill="none"><path fill="#002b50" d="M18.084 0C12.355 0 7.61 1.957 4.36 5.657 1.549 8.86 0 13.224 0 17.945c0 4.86 1.578 9.3 4.444 12.504C7.694 34.08 12.41 36 18.084 36c5.55 0 10.202-1.914 13.45-5.536C34.413 27.25 36 22.844 36 18.056c0-4.837-1.585-9.277-4.464-12.502C28.294 1.92 23.643 0 18.084 0"/><path fill="#fff" d="M18 30.287c-6.786 0-12.307-5.579-12.307-12.434 0-6.58 5.636-12.138 12.307-12.138s12.308 5.558 12.308 12.138c0 6.855-5.522 12.434-12.308 12.434"/><path fill="#009cff" d="M17.918 18.801c-5.418 0-8.157.94-9.288 1.228.947 4.307 4.75 7.54 9.288 7.54s8.341-3.233 9.288-7.54c-1.13-.289-3.87-1.228-9.288-1.228"/></g></svg>