<svg xmlns="http://www.w3.org/2000/svg" fill="none" viewBox="0 0 24 24"><path fill="#009CFF" fill-rule="evenodd" d="M7.167 8.676v1.031c0 1.028.32 1.982.865 2.767L5.386 13.59a2.25 2.25 0 0 0-1.376 2.073v2.092a2.25 2.25 0 0 0 2.25 2.25h11.492a2.25 2.25 0 0 0 2.25-2.25v-2.09a2.25 2.25 0 0 0-1.377-2.075l-2.626-1.105a4.83 4.83 0 0 0 .874-2.778V8.662a4.853 4.853 0 0 0-9.706 0zm4.853 3.384c1.3 0 2.353-1.053 2.353-2.353V8.662a2.353 2.353 0 1 0-4.706 0v1.045c0 1.3 1.053 2.353 2.353 2.353m4.87 3.512a1.006 1.006 0 0 1-.388 1.933H7.51a1.006 1.006 0 0 1-.389-1.934l3.159-1.332a4.8 4.8 0 0 0 1.74.321c.605 0 1.185-.11 1.72-.313z" clip-rule="evenodd"/></svg>