<svg xmlns="http://www.w3.org/2000/svg" id="Layer_1" version="1.1" viewBox="0 0 18 18"><defs><style>.st0{fill:#fff}</style></defs><path d="M13 1.6H5C3.1 1.6 1.6 3.1 1.6 5v8.1c0 1.9 1.5 3.4 3.4 3.4h8.1c1.9 0 3.4-1.5 3.4-3.4V5c0-1.9-1.5-3.4-3.4-3.4Zm-4 12c-2.6 0-4.6-2.1-4.6-4.6S6.5 4.4 9 4.4s4.6 2.1 4.7 4.6c0 2.6-2.1 4.6-4.6 4.6ZM14.7 5c-.2.2-.5.3-.8.3s-.6-.1-.8-.3-.3-.5-.3-.8.1-.6.3-.8.5-.3.8-.3.6.1.8.3.3.5.3.8-.1.6-.3.8" class="st0"/><path d="M9 6C7.3 6 6 7.4 6 9c0 1.7 1.4 3 3 3s3-1.4 3-3-1.4-3-3-3" class="st0"/></svg>