<svg xmlns="http://www.w3.org/2000/svg" fill="none" viewBox="0 0 24 24"><path fill="#009CFF" fill-rule="evenodd" d="M10.82 2.965a1.25 1.25 0 0 1 1.135.255c1.17.997 1.959 2.066 2.346 3.349.38 1.26.33 2.591.077 4.033a1.25 1.25 0 1 1-2.462-.432c.221-1.262.211-2.152-.008-2.88q-.09-.3-.245-.6c-.396 1.03-1.034 2.237-2.162 3.318-.72.69-1.74 2.15-2.005 3.79-.129.797-.077 1.617.253 2.427.187.458.472.936.895 1.42a5 5 0 0 1 .852-1.147c.442-.432.683-.76.83-1.015.148-.253.228-.474.323-.761a1.25 1.25 0 0 1 1.667-.758c1.29.537 2.117 1.572 2.655 2.583.198.374.366.76.507 1.14.91-.94 1.282-2.07 1.325-3.248.061-1.706-.582-3.541-1.482-4.945a1.25 1.25 0 0 1 2.103-1.35c1.104 1.718 1.962 4.05 1.877 6.386-.087 2.408-1.187 4.783-3.892 6.33a1.25 1.25 0 0 1-1.838-.805c-.177-.765-.424-1.612-.808-2.335a4.4 4.4 0 0 0-.452-.696 7.8 7.8 0 0 1-1.066 1.26c-.253.248-.482.658-.657 1.088a6 6 0 0 0-.23.687l-.001.004v-.002.002a1.25 1.25 0 0 1-1.958.717c-1.476-1.088-2.435-2.313-2.964-3.61-.53-1.298-.597-2.591-.407-3.769.372-2.307 1.738-4.235 2.744-5.198C8.999 7.026 9.35 5.815 9.679 4.679c.091-.314.18-.622.286-.922a1.25 1.25 0 0 1 .854-.792" clip-rule="evenodd"/></svg>